<svg width="1440" height="267" viewBox="0 0 1440 267" fill="none" xmlns="http://www.w3.org/2000/svg" preserveAspectRatio="none">
<g clip-path="url(#clip0_939_34)">
<rect width="1440" height="267" transform="matrix(1 0 0 -1 0 267)" fill="white"/>
<path fill-rule="evenodd" clip-rule="evenodd" d="M-770.873 240.844C-1050.44 319.137 -1159.78 474.538 -1096.66 743.029C-1027.77 1036.83 -936.212 1327.86 -831.32 1613.75C-802.582 1692.4 -752.982 1757.29 -690.832 1805.92C-476.083 2016.4 -250.537 2219.75 -13.0681 2408.95C216.718 2592.03 422.503 2585.31 638.511 2408.95C876.116 2220.01 1101.78 2016.2 1316.64 1805.57C1378.62 1756.97 1428.1 1692.22 1456.76 1613.76C1561.21 1328.27 1652.77 1036.84 1721.66 743.438C1784.78 474.947 1675.44 319.546 1395.87 241.253C1079.19 148.512 753.362 73.972 426.58 11.8839C389.248 3.83683 350.141 -0.286265 309.895 0.0154497C271.421 0.113291 234.035 4.24782 198.291 11.9793C-128.299 74.0455 -453.934 148.549 -770.873 240.844Z" fill="#000F33"/>
</g>
<defs>
<clipPath id="clip0_939_34">
<rect width="1440" height="267" fill="white" transform="matrix(1 0 0 -1 0 267)"/>
</clipPath>
</defs>
</svg>
