<svg width="1439" height="328" viewBox="0 0 1439 328" fill="none" xmlns="http://www.w3.org/2000/svg" preserveAspectRatio="none">
<g clip-path="url(#clip0_939_33)">
<rect width="1439" height="328" transform="matrix(1 0 0 -1 0 328)" fill="#000F33"/>
<path d="M651.186 32.5922C696.15 22.3294 742.849 22.3294 787.814 32.5922L1113.92 107.024C1158.89 117.287 1200.96 137.549 1237.02 166.305L1498.54 374.86C1534.6 403.616 1563.71 440.126 1583.73 481.68L1728.86 783.05C1748.87 824.603 1759.26 870.131 1759.26 916.252V1250.75C1759.26 1296.87 1748.87 1342.4 1728.86 1383.95L1583.73 1685.32C1563.71 1726.87 1534.6 1763.38 1498.54 1792.14L1237.02 2000.69C1200.96 2029.45 1158.89 2049.71 1113.92 2059.98L787.814 2134.41C742.85 2144.67 696.151 2144.67 651.186 2134.41L325.077 2059.98C280.113 2049.71 238.038 2029.45 201.979 2000.69L-59.5397 1792.14C-95.5984 1763.38 -124.715 1726.87 -144.726 1685.32L-289.858 1383.95C-309.869 1342.4 -320.261 1296.87 -320.261 1250.75V916.252C-320.261 870.131 -309.869 824.603 -289.858 783.05L-144.726 481.68C-124.715 440.126 -95.5985 403.616 -59.5398 374.86L201.979 166.305C238.038 137.549 280.112 117.287 325.077 107.024L651.186 32.5922Z" fill="white"/>
</g>
<defs>
<clipPath id="clip0_939_33">
<rect width="1439" height="328" fill="white" transform="matrix(1 0 0 -1 0 328)"/>
</clipPath>
</defs>
</svg>
