<svg width="1483" height="1407" viewBox="0 0 1483 1407" fill="none" xmlns="http://www.w3.org/2000/svg">
<path fill-rule="evenodd" clip-rule="evenodd" d="M-342.873 240.844C-622.439 319.137 -731.776 474.538 -668.663 743.029C-599.771 1036.83 -508.212 1327.86 -403.32 1613.75C-374.582 1692.4 -324.982 1757.29 -262.832 1805.92C-48.0829 2016.4 177.463 2219.75 414.932 2408.95C644.718 2592.03 850.503 2585.31 1066.51 2408.95C1304.12 2220.01 1529.78 2016.2 1744.64 1805.57C1806.62 1756.97 1856.1 1692.22 1884.76 1613.76C1989.21 1328.27 2080.77 1036.84 2149.66 743.438C2212.78 474.947 2103.44 319.546 1823.87 241.253C1507.19 148.512 1181.36 73.972 854.58 11.8839C817.248 3.83683 778.141 -0.286265 737.895 0.0154497C699.421 0.113291 662.035 4.24782 626.291 11.9793C299.701 74.0455 -25.9336 148.549 -342.873 240.844Z" fill="#000F33"/>
<path d="M673.186 1095.59C718.15 1085.33 764.849 1085.33 809.814 1095.59L1135.92 1170.02C1180.89 1180.29 1222.96 1200.55 1259.02 1229.31L1520.54 1437.86C1556.6 1466.62 1585.71 1503.13 1605.73 1544.68L1750.86 1846.05C1770.87 1887.6 1781.26 1933.13 1781.26 1979.25V2313.75C1781.26 2359.87 1770.87 2405.4 1750.86 2446.95L1605.73 2748.32C1585.71 2789.87 1556.6 2826.38 1520.54 2855.14L1259.02 3063.69C1222.96 3092.45 1180.89 3112.71 1135.92 3122.98L809.814 3197.41C764.85 3207.67 718.151 3207.67 673.186 3197.41L347.077 3122.98C302.113 3112.71 260.038 3092.45 223.979 3063.69L-37.5397 2855.14C-73.5984 2826.38 -102.715 2789.87 -122.726 2748.32L-267.858 2446.95C-287.869 2405.4 -298.261 2359.87 -298.261 2313.75V1979.25C-298.261 1933.13 -287.869 1887.6 -267.858 1846.05L-122.726 1544.68C-102.715 1503.13 -73.5985 1466.62 -37.5398 1437.86L223.979 1229.31C260.038 1200.55 302.112 1180.29 347.077 1170.02L673.186 1095.59Z" fill="white"/>
</svg>
