<svg width="765" height="501" viewBox="0 0 765 501" fill="none" xmlns="http://www.w3.org/2000/svg" preserveAspectRatio="none">
<g style="mix-blend-mode:screen" opacity="0.2">
<path fill-rule="evenodd" clip-rule="evenodd" d="M-129.798 94.191C-229.363 124.811 -268.303 185.586 -245.825 290.589C-221.29 405.49 -188.682 519.308 -151.326 631.116C-141.091 661.878 -123.426 687.253 -101.292 706.274C-24.8107 788.587 55.5156 868.115 140.088 942.111C221.925 1013.71 295.214 1011.08 372.143 942.111C456.764 868.219 537.133 788.513 613.654 706.135C635.728 687.13 653.349 661.805 663.558 631.121C700.756 519.468 733.364 405.495 757.899 290.749C780.377 185.746 741.437 124.971 641.872 94.351C529.087 58.0812 413.046 28.9294 296.665 4.64753C283.368 1.50015 269.439 -0.112303 255.104 0.0060803C241.405 0.0447119 228.092 1.66146 215.365 4.68442C99.0513 28.9579 -16.9217 58.0952 -129.798 94.191Z" fill="url(#paint0_linear_614_81)"/>
</g>
<defs>
<linearGradient id="paint0_linear_614_81" x1="-159.399" y1="710.299" x2="671.63" y2="710.299" gradientUnits="userSpaceOnUse">
<stop stop-color="white"/>
<stop offset="1" stop-color="#3C92F9"/>
</linearGradient>
</defs>
</svg>
