<svg width="568" height="568" viewBox="0 0 568 568" fill="none" xmlns="http://www.w3.org/2000/svg">
<path d="M283.987 283.985V1C361.016 1 434.716 32.4008 488.076 87.9543L283.987 283.985Z" fill="#A5D0E8" stroke="#C4DCFA"/>
<path d="M283.987 283.985L488.076 87.9543C509.176 109.922 526.592 135.152 539.65 162.671L283.987 283.985Z" fill="#E9DC94" stroke="#C4DCFA"/>
<path d="M283.987 283.985L539.65 162.671C552.707 190.19 561.237 219.637 564.908 249.875L283.987 283.985Z" fill="#9747FF" stroke="#C4DCFA"/>
<path d="M283.987 283.985L564.908 249.875C583.747 405.023 473.245 546.068 318.097 564.906C162.948 583.745 21.9037 473.243 3.06522 318.095C-7.17774 233.736 21.0311 149.241 79.8974 87.9543L283.987 283.985Z" fill="#0F3CAE" stroke="#C4DCFA"/>
<path d="M283.987 283.985L79.8975 87.9543C133.257 32.4008 206.958 1 283.987 1V283.985Z" fill="#3AA4DF" stroke="#C4DCFA"/>
<circle cx="284" cy="284" r="255" fill="#F9F9F9"/>
<g style="mix-blend-mode:multiply">
<circle cx="284" cy="284" r="220" fill="#F3F3F3"/>
</g>
</svg>
